<svg width="50" height="51" fill="none" xmlns="http://www.w3.org/2000/svg"><g clip-path="url(#cameroon__a)"><path d="M35.87 3.299A24.9 24.9 0 0 0 25 .819a24.9 24.9 0 0 0-10.87 2.48l-2.174 22.52 2.175 22.518A24.902 24.902 0 0 0 25 50.819c3.895 0 7.583-.891 10.87-2.48l2.174-22.52-2.174-22.52Z" fill="#D80027"/><path d="m25 17.123 2.158 6.642h6.985l-5.65 4.106 2.158 6.643L25 30.408l-5.651 4.106 2.159-6.643-5.651-4.106h6.985L25 17.123Z" fill="#FFDA44"/><path d="M14.13 3.3C5.768 7.343 0 15.907 0 25.818c0 9.912 5.768 18.475 14.13 22.519V3.3Z" fill="#496E2D"/><path d="M35.87 3.3v45.037C44.232 44.293 50 35.73 50 25.818 50 15.907 44.232 7.343 35.87 3.3Z" fill="#FFDA44"/></g><defs><clipPath id="cameroon__a"><path fill="#fff" transform="translate(0 .818)" d="M0 0h50v50H0z"/></clipPath></defs></svg>