<svg width="50" height="51" fill="none" xmlns="http://www.w3.org/2000/svg"><g clip-path="url(#colombia__a)"><path d="M0 25.818c0-13.807 11.193-25 25-25s25 11.193 25 25l-25 2.174-25-2.174Z" fill="#FFDA44"/><path d="M3.345 38.318c4.323 7.472 12.402 12.5 21.655 12.5 9.253 0 17.332-5.028 21.655-12.5L25 36.688l-21.655 1.63Z" fill="#D80027"/><path d="M46.655 38.318A24.885 24.885 0 0 0 50 25.818H0c0 4.554 1.218 8.823 3.345 12.5h43.31Z" fill="#0052B4"/></g><defs><clipPath id="colombia__a"><path fill="#fff" transform="translate(0 .818)" d="M0 0h50v50H0z"/></clipPath></defs></svg>