<svg width="50" height="51" fill="none" xmlns="http://www.w3.org/2000/svg"><g clip-path="url(#comoros__a)"><path d="M25 50.636c13.807 0 25-11.193 25-25s-11.193-25-25-25-25 11.193-25 25 11.193 25 25 25Z" fill="#F0F0F0"/><path d="M50 25.564H22.897c-5.38 5.38-8.634 9.535-11.956 12.857l14.13 1.273L47 37.52a24.89 24.89 0 0 0 3-11.884v-.072Z" fill="#D80027"/><path d="M10.942 13.607H46.92C42.668 5.877 34.446.637 25 .637A24.918 24.918 0 0 0 7.36 7.923l3.582 5.683Z" fill="#FFDA44"/><path d="M12.029 37.52c-2.247 2.248-3.116 4.13-4.742 5.757A24.92 24.92 0 0 0 25 50.637c9.505 0 17.772-5.306 22-13.117H12.029Z" fill="#0052B4"/><path d="M7.322 7.886c-9.763 9.763-9.763 25.592 0 35.356L25 25.564 7.322 7.886Z" fill="#6DA544"/><path d="M6.594 25.564a7.61 7.61 0 0 1 5.978-7.432 7.609 7.609 0 1 0 0 14.863 7.61 7.61 0 0 1-5.978-7.431Z" fill="#F0F0F0"/><path d="m12.489 19.042.404 1.246h1.31l-1.06.77.405 1.245-1.06-.77-1.059.77.405-1.246-1.06-.77h1.31l.405-1.245Zm0 3.261.404 1.246h1.31l-1.06.77.405 1.245-1.06-.77-1.059.77.405-1.246-1.06-.77h1.31l.405-1.245Zm0 3.261.404 1.245h1.31l-1.06.77.405 1.246-1.06-.77-1.059.77.405-1.246-1.06-.77h1.31l.405-1.245Zm0 3.261.404 1.245h1.31l-1.06.77.405 1.246-1.06-.77-1.059.77.405-1.246-1.06-.77h1.31l.405-1.245Z" fill="#F0F0F0"/></g><defs><clipPath id="comoros__a"><path fill="#fff" transform="translate(0 .636)" d="M0 0h50v50H0z"/></clipPath></defs></svg>