<svg width="50" height="51" fill="none" xmlns="http://www.w3.org/2000/svg"><g clip-path="url(#british columbia__a)"><path d="M0 25.818c0-13.807 11.193-25 25-25s25 11.193 25 25H0Z" fill="#F0F0F0"/><path d="m18.478 24.451-1.367 1.367h1.367v-1.367Zm13.044 0v1.367h1.366l-1.366-1.367ZM.721 19.84A25.048 25.048 0 0 0 0 25.818h7.888l5.979-5.978H.72Zm35.412 0 5.978 5.978H50c0-2.06-.251-4.062-.721-5.978H36.133Z" fill="#0052B4"/><path d="M34.596 19.84h-3.074l5.978 5.978h3.074l-5.978-5.978Zm-16.118 3.074V19.84L12.5 25.818h3.074l2.904-2.904Z" fill="#D80027"/><path d="M11.711 4.64A25.114 25.114 0 0 0 8.78 6.797h5.088L11.71 4.641Zm29.51 2.156a25.1 25.1 0 0 0-2.932-2.155l-2.156 2.155h5.088Z" fill="#0052B4"/><path d="M28.26 16.579h19.976a24.976 24.976 0 0 0-3.83-6.522H28.26V1.03a25.244 25.244 0 0 0-6.522 0v9.027H5.595a24.976 24.976 0 0 0-3.831 6.522h19.975v9.24h6.522v-9.24Z" fill="#D80027"/><path d="M18.478 6.796 14.71 3.027c-.696.315-1.375.663-2.036 1.038l2.731 2.731h3.074Zm13.044 0 3.769-3.769a24.888 24.888 0 0 0-2.203-.871l-1.566 1.566v3.074Z" fill="#D80027"/><path d="M50 25.818c0 13.807-11.193 25-25 25s-25-11.193-25-25h50Z" fill="#F0F0F0"/><path d="M45.833 29.007c-2.083 0-2.083-1.905-4.167-1.905-2.083 0-2.083 1.905-4.166 1.905s-2.084-1.905-4.167-1.905c-2.083 0-2.083 1.905-4.166 1.905-2.084 0-2.084-1.905-4.167-1.905-2.084 0-2.084 1.905-4.167 1.905-2.083 0-2.083-1.905-4.166-1.905-2.084 0-2.084 1.905-4.167 1.905-2.084 0-2.084-1.905-4.167-1.905-2.083 0-2.083 1.905-4.166 1.905-2.073 0-2.085-1.884-4.134-1.904.057 1.143.194 2.266.4 3.364 1.66.244 1.806 1.873 3.734 1.873 2.083 0 2.083-1.905 4.166-1.905s2.083 1.905 4.167 1.905c2.083 0 2.083-1.905 4.167-1.905 2.083 0 2.083 1.905 4.166 1.905 2.084 0 2.084-1.905 4.167-1.905 2.083 0 2.083 1.905 4.167 1.905 2.083 0 2.083-1.905 4.166-1.905 2.084 0 2.084 1.905 4.167 1.905 2.083 0 2.083-1.905 4.166-1.905 2.084 0 2.084 1.905 4.167 1.905 1.928 0 2.073-1.63 3.734-1.873.206-1.098.343-2.22.4-3.364-2.05.02-2.062 1.904-4.134 1.904Zm-4.167 4.616c-2.083 0-2.083 1.905-4.166 1.905s-2.084-1.905-4.167-1.905c-2.083 0-2.083 1.905-4.166 1.905-2.084 0-2.084-1.905-4.167-1.905-2.084 0-2.084 1.905-4.167 1.905-2.083 0-2.083-1.905-4.166-1.905-2.084 0-2.084 1.905-4.167 1.905-2.084 0-2.084-1.905-4.167-1.905-2.083 0-2.083 1.905-4.166 1.905-1.49 0-1.914-.972-2.796-1.527a24.871 24.871 0 0 0 2.27 4.815c.16.03.334.046.526.046 2.083 0 2.083-1.905 4.166-1.905s2.083 1.905 4.167 1.905c2.083 0 2.083-1.905 4.167-1.905 2.083 0 2.083 1.905 4.166 1.905s2.083-1.905 4.167-1.905c2.083 0 2.083 1.905 4.167 1.905 2.083 0 2.083-1.905 4.166-1.905 2.084 0 2.084 1.905 4.167 1.905 2.083 0 2.083-1.905 4.166-1.905 2.084 0 2.084 1.905 4.167 1.905.192 0 .366-.017.526-.046A24.883 24.883 0 0 0 48.63 34c-.882.555-1.307 1.527-2.796 1.527-2.083 0-2.083-1.905-4.167-1.905Z" fill="#0052B4"/><path d="m49.986 25.033.007.208-.007-.208Zm-49.979.208.006-.208-.006.208ZM0 25.818Zm0 0c0 .455.013.908.037 1.357 2.045.023 2.059 1.904 4.13 1.904 2.083 0 2.083-1.905 4.166-1.905s2.083 1.905 4.167 1.905c2.083 0 2.083-1.905 4.167-1.905 2.083 0 2.083 1.905 4.166 1.905 2.084 0 2.084-1.905 4.167-1.905 2.083 0 2.083 1.905 4.167 1.905 2.083 0 2.083-1.905 4.166-1.905 2.084 0 2.084 1.905 4.167 1.905 2.083 0 2.083-1.905 4.166-1.905 2.084 0 2.084 1.905 4.167 1.905 2.07 0 2.084-1.88 4.13-1.904.024-.45.037-.902.037-1.357H0Zm49.993-.577Z" fill="#F0F0F0"/><path d="M41.666 40.145c-2.083 0-2.083 1.905-4.166 1.905s-2.084-1.905-4.167-1.905c-2.083 0-2.083 1.905-4.166 1.905-2.084 0-2.084-1.905-4.167-1.905-2.084 0-2.084 1.905-4.167 1.905-2.083 0-2.083-1.905-4.166-1.905-2.084 0-2.084 1.905-4.167 1.905-2.084 0-2.084-1.905-4.167-1.905-1.439 0-1.884.909-2.708 1.47a25.106 25.106 0 0 0 8.023 6.48L25 47.525l11.352.572a25.107 25.107 0 0 0 8.023-6.48c-.824-.562-1.27-1.47-2.709-1.47Z" fill="#0052B4"/><path d="m38.865 40.741-7.604 1.455-.964-7.682L25 40.164l-5.297-5.65-.964 7.682-7.604-1.455 3.73 6.783-1.219.572A24.891 24.891 0 0 0 25 50.819c4.088 0 7.947-.981 11.354-2.721l-1.218-.573 3.73-6.783Z" fill="#FFDA44"/></g><defs><clipPath id="british columbia__a"><path fill="#fff" transform="translate(0 .818)" d="M0 0h50v50H0z"/></clipPath></defs></svg>