<svg width="50" height="51" fill="none" xmlns="http://www.w3.org/2000/svg"><g clip-path="url(#armenia__a)"><path d="M50 25.727c0-3.058-.55-5.987-1.555-8.695L25 15.945 1.555 17.032A24.947 24.947 0 0 0 0 25.727c0 3.058.55 5.988 1.555 8.696L25 35.51l23.445-1.087A24.944 24.944 0 0 0 50 25.727Z" fill="#0052B4"/><path d="M25 50.727c10.75 0 19.913-6.784 23.445-16.304H1.555C5.087 43.943 14.251 50.727 25 50.727Z" fill="#FF9811"/><path d="M1.555 17.032h46.89C44.913 7.512 35.75.727 25 .727S5.087 7.512 1.555 17.032Z" fill="#D80027"/></g><defs><clipPath id="armenia__a"><path fill="#fff" transform="translate(0 .727)" d="M0 0h50v50H0z"/></clipPath></defs></svg>