<svg width="50" height="51" fill="none" xmlns="http://www.w3.org/2000/svg"><g clip-path="url(#portugal__a)"><path d="M0 25.91c0 10.748 6.784 19.912 16.304 23.444l2.174-23.445-2.174-23.445C6.784 5.996 0 15.16 0 25.91Z" fill="#6DA544"/><path d="M50 25.91c0-13.808-11.193-25-25-25-3.058 0-5.987.55-8.696 1.554v46.89A24.945 24.945 0 0 0 25 50.91c13.807 0 25-11.193 25-25Z" fill="#D80027"/><path d="M16.304 34.605a8.696 8.696 0 1 0 0-17.392 8.696 8.696 0 0 0 0 17.392Z" fill="#FFDA44"/><path d="M11.413 21.561v5.435a4.891 4.891 0 1 0 9.783 0v-5.435h-9.783Z" fill="#D80027"/><path d="M16.304 28.626c-.899 0-1.63-.731-1.63-1.63v-2.174h3.26v2.174c0 .899-.73 1.63-1.63 1.63Z" fill="#F0F0F0"/></g><defs><clipPath id="portugal__a"><path fill="#fff" transform="translate(0 .91)" d="M0 0h50v50H0z"/></clipPath></defs></svg>