<svg width="50" height="51" fill="none" xmlns="http://www.w3.org/2000/svg"><g clip-path="url(#india__a)"><path d="M25 50.727c13.807 0 25-11.193 25-25s-11.193-25-25-25-25 11.193-25 25 11.193 25 25 25Z" fill="#F0F0F0"/><path d="M25 .727c-9.912 0-18.476 5.768-22.52 14.13h45.04C43.475 6.496 34.91.728 25 .728Z" fill="#FF9811"/><path d="M25 50.727c9.911 0 18.476-5.768 22.52-14.13H2.48c4.044 8.362 12.608 14.13 22.52 14.13Z" fill="#6DA544"/><path d="M25 34.423a8.696 8.696 0 1 0 0-17.391 8.696 8.696 0 0 0 0 17.39Z" fill="#0052B4"/><path d="M25 31.162a5.435 5.435 0 1 0 0-10.87 5.435 5.435 0 0 0 0 10.87Z" fill="#F0F0F0"/><path d="m25 19.02 1.677 3.803 4.13-.449-2.454 3.353 2.455 3.353-4.131-.449L25 32.434l-1.677-3.803-4.13.45 2.454-3.354-2.455-3.353 4.131.45L25 19.02Z" fill="#0052B4"/></g><defs><clipPath id="india__a"><path fill="#fff" transform="translate(0 .727)" d="M0 0h50v50H0z"/></clipPath></defs></svg>