<svg width="50" height="51" fill="none" xmlns="http://www.w3.org/2000/svg"><g clip-path="url(#argentina__a)"><path d="M25 50.91c13.807 0 25-11.194 25-25 0-13.808-11.193-25-25-25s-25 11.192-25 25c0 13.806 11.193 25 25 25Z" fill="#F0F0F0"/><path d="M25 .91C15.088.91 6.524 6.676 2.48 15.04h45.04C43.475 6.677 34.91.91 25 .91Zm0 49.999c9.911 0 18.476-5.768 22.52-14.13H2.48C6.525 45.14 15.089 50.909 25 50.909Z" fill="#338AF3"/><path d="m32.472 25.91-3.053 1.435 1.626 2.957-3.316-.634-.42 3.35L25 30.553l-2.31 2.463-.42-3.349-3.315.634 1.626-2.957-3.053-1.436 3.053-1.436-1.626-2.957 3.316.634.42-3.349L25 21.264l2.31-2.463.42 3.35 3.315-.635-1.626 2.957 3.053 1.436Z" fill="#FFDA44"/></g><defs><clipPath id="argentina__a"><path fill="#fff" transform="translate(0 .91)" d="M0 0h50v50H0z"/></clipPath></defs></svg>