<svg width="50" height="51" fill="none" xmlns="http://www.w3.org/2000/svg"><g clip-path="url(#portugal__a)"><path d="M0 25.818c0 10.75 6.784 19.913 16.304 23.445l2.174-23.445-2.174-23.445C6.784 5.906 0 15.07 0 25.818Z" fill="#6DA544"/><path d="M50 25.818c0-13.807-11.193-25-25-25-3.058 0-5.987.55-8.696 1.555v46.89A24.945 24.945 0 0 0 25 50.818c13.807 0 25-11.193 25-25Z" fill="#D80027"/><path d="M16.304 34.514a8.696 8.696 0 1 0 0-17.392 8.696 8.696 0 0 0 0 17.392Z" fill="#FFDA44"/><path d="M11.413 21.47v5.435a4.891 4.891 0 1 0 9.783 0V21.47h-9.783Z" fill="#D80027"/><path d="M16.304 28.536c-.899 0-1.63-.732-1.63-1.63V24.73h3.26v2.174c0 .9-.73 1.63-1.63 1.63Z" fill="#F0F0F0"/></g><defs><clipPath id="portugal__a"><path fill="#fff" transform="translate(0 .818)" d="M0 0h50v50H0z"/></clipPath></defs></svg>