<svg width="50" height="51" fill="none" xmlns="http://www.w3.org/2000/svg"><g clip-path="url(#ghana__a)"><path d="M0 25.91c0 3.057.55 5.986 1.555 8.695L25 35.692l23.445-1.087A24.945 24.945 0 0 0 50 25.909c0-3.058-.55-5.987-1.555-8.695L25 16.127 1.555 17.212A24.947 24.947 0 0 0 0 25.91Z" fill="#FFDA44"/><path d="M25 .91C14.25.91 5.087 7.692 1.555 17.212h46.89C44.913 7.694 35.75.91 25 .91Z" fill="#D80027"/><path d="M48.445 34.605H1.555C5.087 44.125 14.25 50.909 25 50.909s19.913-6.784 23.445-16.304Z" fill="#496E2D"/><path d="m25 17.213 2.158 6.643h6.985l-5.65 4.106 2.158 6.643L25 30.499l-5.651 4.106 2.159-6.643-5.651-4.106h6.985L25 17.213Z" fill="#000"/></g><defs><clipPath id="ghana__a"><path fill="#fff" transform="translate(0 .91)" d="M0 0h50v50H0z"/></clipPath></defs></svg>