<svg width="50" height="51" fill="none" xmlns="http://www.w3.org/2000/svg"><g clip-path="url(#hungary__a)"><path d="M1.555 17.213A24.947 24.947 0 0 0 0 25.91c0 3.058.55 5.988 1.555 8.696L25 36.779l23.445-2.174A24.946 24.946 0 0 0 50 25.909c0-3.058-.55-5.987-1.555-8.695L25 15.04 1.555 17.214Z" fill="#F0F0F0"/><path d="M25 .91C14.251.91 5.087 7.692 1.555 17.212h46.89C44.913 7.694 35.75.91 25 .91Z" fill="#D80027"/><path d="M25 50.91c10.75 0 19.913-6.785 23.445-16.305H1.555C5.087 44.125 14.251 50.909 25 50.909Z" fill="#6DA544"/></g><defs><clipPath id="hungary__a"><path fill="#fff" transform="translate(0 .91)" d="M0 0h50v50H0z"/></clipPath></defs></svg>