<svg width="50" height="50" fill="none" xmlns="http://www.w3.org/2000/svg"><g clip-path="url(#south korea__a)"><path d="M25 50c13.807 0 25-11.193 25-25S38.807 0 25 0 0 11.193 0 25s11.193 25 25 25Z" fill="#F0F0F0"/><path d="M33.696 25c0 2.174-3.893 7.609-8.696 7.609-4.802 0-8.696-5.435-8.696-7.609a8.696 8.696 0 1 1 17.392 0Z" fill="#D80027"/><path d="M33.696 25a8.696 8.696 0 0 1-17.392 0" fill="#0052B4"/><path d="m34.216 32.686 2.306-2.305 1.537 1.537-2.306 2.305-1.537-1.537Zm-3.843 3.843 2.305-2.306 1.537 1.537-2.305 2.306-1.537-1.537Zm8.455.768 2.305-2.305 1.537 1.537-2.306 2.305-1.536-1.537Zm-3.844 3.843 2.305-2.305 1.538 1.537-2.306 2.305-1.537-1.537Zm1.538-6.148 2.305-2.306 1.537 1.537-2.305 2.306-1.537-1.537Zm-3.842 3.842 2.305-2.305 1.537 1.537-2.306 2.305-1.537-1.537Zm6.158-21.516L32.69 11.17l1.537-1.537 6.148 6.148-1.537 1.537Zm-6.149-1.536-2.306-2.306 1.537-1.537 2.306 2.306-1.537 1.537Zm3.842 3.843-2.305-2.305 1.537-1.537 2.305 2.305-1.537 1.537Zm.769-8.455-2.306-2.305 1.537-1.537 2.305 2.305-1.537 1.537Zm3.844 3.844-2.306-2.306 1.537-1.537 2.306 2.306-1.537 1.537ZM8.863 34.987l6.148 6.148-1.537 1.537-6.148-6.147 1.537-1.538Zm6.147 1.536 2.306 2.306-1.537 1.537-2.306-2.306 1.537-1.537Zm-3.842-3.841 2.305 2.305-1.537 1.537-2.305-2.306 1.537-1.536Zm2.305-2.307 6.148 6.148-1.537 1.537-6.148-6.148 1.537-1.537ZM15.01 8.86l-6.148 6.148-1.537-1.537 6.148-6.148L15.01 8.86Zm2.305 2.305-6.148 6.148-1.536-1.537 6.147-6.148 1.537 1.537Zm2.308 2.307-6.148 6.147-1.537-1.536 6.148-6.148 1.537 1.537Z" fill="#000"/></g><defs><clipPath id="south korea__a"><path fill="#fff" d="M0 0h50v50H0z"/></clipPath></defs></svg>