<svg width="50" height="51" fill="none" xmlns="http://www.w3.org/2000/svg"><g clip-path="url(#jordan__a)"><path d="M25 50.636c13.807 0 25-11.193 25-25s-11.193-25-25-25-25 11.193-25 25 11.193 25 25 25Z" fill="#F0F0F0"/><path d="M15.217 16.94h33.228C44.913 7.42 35.749.637 25 .637A24.919 24.919 0 0 0 7.323 7.96l7.894 8.982Z" fill="#000"/><path d="M15.217 34.332h33.228C44.913 43.852 35.749 50.636 25 50.636a24.919 24.919 0 0 1-17.677-7.323l7.894-8.981Z" fill="#6DA544"/><path d="M7.322 7.958c-9.763 9.764-9.763 25.593 0 35.356L25 25.636 7.322 7.96Z" fill="#D80027"/><path d="m9.922 20.201 1.372 2.87 3.099-.717-1.388 2.862 2.492 1.976-3.102.699.008 3.18-2.48-1.99-2.482 1.99.01-3.18-3.103-.7 2.491-1.975-1.387-2.862 3.098.716 1.372-2.869Z" fill="#F0F0F0"/></g><defs><clipPath id="jordan__a"><path fill="#fff" transform="translate(0 .636)" d="M0 0h50v50H0z"/></clipPath></defs></svg>